# xmcd CD database file
#
# Track frame offsets:
#	150
#	18310
#	37245
#	64094
#	82359
#	104740
#	123451
#	137614
#	155257
#	171697
#
# Disc length: 2589 seconds
#
# Revision: 0
# Processed by: cddbd v1.5.2PL0 Copyright (c) Steve Scherf et al.
# Submitted via: CDex 1.70beta2
#
DISCID=940a1b0a
DTITLE=Tony Vega Band - Glory Baby
DYEAR=2007
DGENRE=Blues
TTITLE0=Going Backwards
TTITLE1=Blackwater Roll
TTITLE2=Dixieland
TTITLE3=Blood On The Bus
TTITLE4=Phone Call from Leavenworth
TTITLE5=Send Me
TTITLE6=Remember
TTITLE7=High Expectations
TTITLE8=King Friday
TTITLE9=Lowdown
EXTD=YEAR: 2007
EXTT0=
EXTT1=
EXTT2=
EXTT3=
EXTT4=
EXTT5=
EXTT6=
EXTT7=
EXTT8=
EXTT9=
PLAYORDER=
